# xmcd
#
# Track frame offsets: 
#        150
#        23575
#        43185
#        56523
#        80133
#        96208
#        110925
#        123503
#        144473
#        169125
#        187925
#        239968
#        263993
#        282183
#        305475
#
# Disc length: 4366 seconds
#
# Revision: 2
# Processed by: cddbd v1.5.2PL0 Copyright (c) Steve Scherf et al.
# Submitted via: ExactAudioCopy v0.95b4
#
DISCID=e0110c0f
DTITLE=Τζίμης Πανούσης - Δουλειές του κεφαλιού
DYEAR=1990
DGENRE=Rock
TTITLE0=τουμπερλέκ
TTITLE1=τι έχει και κλαις
TTITLE2=ράπισμα
TTITLE3=μια τρύπα στη σημαία
TTITLE4=μεταμοντέρνο
TTITLE5=do it
TTITLE6=είμαι γυφτάκι
TTITLE7=δουλειές του κεφαλιού
TTITLE8=εργατική υποχώρηση
TTITLE9=ouzo power
TTITLE10=logodiaria (τι λες ρε μεγάλε)
TTITLE11=η ελλάδα στα κάρβουνα (ποτ-πουρί)
TTITLE12=usa for marketing
TTITLE13=ο παπουτσωμένος λόγος
TTITLE14=η αυθεντική λαμπάντα
EXTD=
EXTT0=
EXTT1=
EXTT2=
EXTT3=
EXTT4=
EXTT5=
EXTT6=
EXTT7=
EXTT8=
EXTT9=
EXTT10=
EXTT11=
EXTT12=
EXTT13=
EXTT14=
PLAYORDER=
